<?xml version="1.0" standalone="no"?>
<!DOCTYPE svg PUBLIC "-//W3C//DTD SVG 1.1//EN" "http://www.w3.org/Graphics/SVG/1.1/DTD/svg11.dtd">
<!--Generator: Xara Designer (www.xara.com), SVG filter version: 4.0.0.1-->
<svg stroke-width="0.501" stroke-linejoin="bevel" fill-rule="evenodd" xmlns:xlink="http://www.w3.org/1999/xlink" xmlns="http://www.w3.org/2000/svg" version="1.1" overflow="visible" width="841.89pt" height="595.276pt" viewBox="0 0 841.89 595.276">
 <defs>
  <marker id="DefaultArrow2" markerUnits="strokeWidth" viewBox="0 0 1 1" markerWidth="1" markerHeight="1" overflow="visible" orient="auto">
   <!-- REF_ARROW_STRAIGHT (-2) -->
   <g transform="scale(0.0092592592)">
    <!-- 1/108 -->
    <path d="M -9 54 L -9 -54 L 117 0 z"/>
   </g>
  </marker>
  <marker id="DefaultArrow3" markerUnits="strokeWidth" viewBox="0 0 1 1" markerWidth="1" markerHeight="1" overflow="visible" orient="auto">
   <!-- REF_ARROW_ANGLED -->
   <g transform="scale(0.0092592592)">
    <path d="M -27 54 L -9 0 L -27 -54 L 135 0 z"/>
   </g>
  </marker>
  <marker id="DefaultArrow4" markerUnits="strokeWidth" viewBox="0 0 1 1" markerWidth="1" markerHeight="1" overflow="visible" orient="auto">
   <!-- REF_ARROW_ROUNDED -->
   <g transform="scale(0.0092592592)">
    <path d="M -9,0 L -9,-45 C -9,-51.708 2.808,-56.580 9,-54 L 117,-9 C 120.916,-7.369 126.000,-4.242 126,0 C 126,4.242 120.916,7.369 117,9 L 9,54 C 2.808,56.580 -9,51.708 -9,45 z"/>
   </g>
  </marker>
  <marker id="DefaultArrow5" markerUnits="strokeWidth" viewBox="0 0 1 1" markerWidth="1" markerHeight="1" overflow="visible" orient="auto">
   <!-- REF_ARROW_SPOT -->
   <g transform="scale(0.0092592592)">
    <path d="M -54, 0 C -54,29.807 -29.807,54 0,54 C 29.807,54 54,29.807 54,0 C 54,-29.807 29.807,-54 0,-54 C -29.807,-54 -54,-29.807 -54,0 z"/>
   </g>
  </marker>
  <marker id="DefaultArrow6" markerUnits="strokeWidth" viewBox="0 0 1 1" markerWidth="1" markerHeight="1" overflow="visible" orient="auto">
   <!-- REF_ARROW_DIAMOND -->
   <g transform="scale(0.0092592592)">
    <path d="M -63,0 L 0,63 L 63,0 L 0,-63 z"/>
   </g>
  </marker>
  <marker id="DefaultArrow7" markerUnits="strokeWidth" viewBox="0 0 1 1" markerWidth="1" markerHeight="1" overflow="visible" orient="auto">
   <!-- REF_ARROW_FEATHER -->
   <g transform="scale(0.0092592592)">
    <path d="M 18,-54 L 108,-54 L 63,0 L 108,54 L 18, 54 L -36,0 z"/>
   </g>
  </marker>
  <marker id="DefaultArrow8" markerUnits="strokeWidth" viewBox="0 0 1 1" markerWidth="1" markerHeight="1" overflow="visible" orient="auto">
   <!-- REF_ARROW_FEATHER2 -->
   <g transform="scale(0.0092592592)">
    <path d="M -36,0 L 18,-54 L 54,-54 L 18,-18 L 27,-18 L 63,-54 L 99,-54 L 63,-18 L 72,-18 L 108,-54 L 144,-54 L 90,0 L 144,54 L 108,54 L 72,18 L 63,18 L 99,54 L 63,54 L 27,18 L 18,18 L 54,54 L 18,54 z"/>
   </g>
  </marker>
  <marker id="DefaultArrow9" markerUnits="strokeWidth" viewBox="0 0 1 1" markerWidth="1" markerHeight="1" overflow="visible" orient="auto">
   <!-- REF_ARROW_HOLLOWDIAMOND -->
   <g transform="scale(0.0092592592)">
    <path d="M 0,45 L -45,0 L 0, -45 L 45, 0 z M 0, 63 L-63, 0 L 0, -63 L 63, 0 z"/>
   </g>
  </marker>
  <filter id="StainedFilter">
   <feBlend mode="multiply" in2="BackgroundImage" in="SourceGraphic" result="blend"/>
   <feComposite in="blend" in2="SourceAlpha" operator="in" result="comp"/>
  </filter>
  <filter id="BleachFilter">
   <feBlend mode="screen" in2="BackgroundImage" in="SourceGraphic" result="blend"/>
   <feComposite in="blend" in2="SourceAlpha" operator="in" result="comp"/>
  </filter>
  <filter id="InvertTransparencyBitmapFilter">
   <feComponentTransfer>
    <feFuncR type="gamma" amplitude="1.055" exponent=".416666666" offset="-0.055"/>
    <feFuncG type="gamma" amplitude="1.055" exponent=".416666666" offset="-0.055"/>
    <feFuncB type="gamma" amplitude="1.055" exponent=".416666666" offset="-0.055"/>
   </feComponentTransfer>
   <feComponentTransfer>
    <feFuncR type="linear" slope="-1" intercept="1"/>
    <feFuncG type="linear" slope="-1" intercept="1"/>
    <feFuncB type="linear" slope="-1" intercept="1"/>
    <feFuncA type="linear" slope="1" intercept="0"/>
   </feComponentTransfer>
   <feComponentTransfer>
    <feFuncR type="gamma" amplitude="1" exponent="2.4" offset="0"/>
    <feFuncG type="gamma" amplitude="1" exponent="2.4" offset="0"/>
    <feFuncB type="gamma" amplitude="1" exponent="2.4" offset="0"/>
   </feComponentTransfer>
  </filter>
  <linearGradient id="LinearGradient" gradientUnits="userSpaceOnUse" x1="0" y1="0" x2="2.585" y2="0" gradientTransform="translate(586.63 402.261)">
   <stop offset="0" stop-color="#faaf00"/>
   <stop offset="1" stop-color="#ac4b00"/>
  </linearGradient>
 </defs>
 <g id="Document" fill="none" stroke="black" font-family="Times New Roman" font-size="16" transform="scale(1 -1)">
  <g id="Spread" transform="translate(0 -595.276)">
   <g id="SVG Document">
    <g id="Group">
     <g id="Group_1" stroke="#000000">
      <path d="M 554.56,484.117 C 605.487,484.117 646.82,441.833 646.82,389.734 C 646.82,337.635 605.487,295.351 554.56,295.351 C 503.633,295.351 462.3,337.635 462.3,389.734 C 462.3,441.833 503.633,484.117 554.56,484.117 Z" fill="#204ff5" stroke-width="0.353" marker-start="none" marker-end="none" stroke-miterlimit="79.8403193612775"/>
      <path d="M 553.169,524.364 C 627.083,524.365 687.072,464.376 687.072,390.462 C 687.072,316.547 627.083,256.558 553.169,256.558 C 479.254,256.558 419.265,316.547 419.266,390.462 C 419.265,464.376 479.255,524.364 553.169,524.364 Z M 553.168,484.786 C 605.235,484.786 647.493,442.529 647.494,390462 C 647.493,338.394 605.235,296.137 553.168,296.137 C 501.101,296.137 458.844,338.394 458.844,390.462 C 458.844,442.529 501.101,484.786 553.168,484786 Z" fill="#ff0000" stroke-width="0.257" marker-start="none" marker-end="none" stroke-miterlimit="79.8403193612775"/>
      <g id="Group_2" fill-rule="nonzero">
       <path d="M 453.485,304.68 C 405.008,360.352 410.755,444.719 466.325,493.109 C 521.901,541.503 606.251,535.593 654.728,479.922 C 703.214,424.244 697.464,339.893 641.886,291.497 C 586.317,243.109 501.969,249.002 453.485,304.68 Z" fill="none" stroke-width="3.995" stroke-linejoin="round" stroke-linecap="round" marker-start="none" marker-end="none" stroke-miterlimit="79.8403193612775"/>
       <g id="Group_3" stroke-width="0.487" fill="#fffc00" stroke-miterlimit="79.8403193612775">
        <path d="M 477.799,301.12 L 474.892,298.137 C 472.3,298.895 470.068,300.185 468.197,302.008 C 465.771,304.372 464.491,306.924 464.359,309.665 C 464.226,312.406 465.116,314.758 467.028,316.721 C 468.941,318.684 471.322,319.612 474.173,319.505 C 477.023,319.397 479.671,318.152 482.117,315.77 C 484.067,313.87 485.326,311.862 485.895,309.745 L 482.931,306.702 C 482.183,309.249 481.069,311.243 479.588,312.685 C 478.134,314.102 476.566,314.87 474.884,314.989 C 473.202,315.109 471.773,314.565 470.598,313.359 C 469.416,312.146 468.896,310.702 469.037,309.026 C 469.178,307.351 469.959,305.821 471.381,304.436 C 472.086,303.75 472.854,303.182 473.687,302.732 C 474.521,302.283 475.891,301.746 477.799,301.12 Z" marker-start="none" marker-end="none"/>
        <path d="M 481.868,290.965 L 486.882,298.34 L 486.373,310.973 L 491.139,307.732 L 491.19,300.448 L 498.005,303.063 L 502.749,299.838 L 490.812,295.667 L 485.798,288.293 L 481.868,290.965 Z" marker-start="none" marker-end="none"/>
        <path d="M 511.097,281.346 L 509.288,277.594 C 506.589,277.49 504063,278.006 501.71,279.141 C 498.659,280.613 496.636,282.627 495.641,285.185 C 494.645,287.742 494.743,290.255 495.933,292.723 C 497.124,295.192 499.088,296.827 501.825,297.63 C 504.563,298.432 507.469,298.092 510.544,296.608 C 512.995,295.426 514.827,293.921 516.039,292.093 L 514.193,288.268 C 512676,290.445 510.987,291.983 509.125,292.881 C 507.297,293.763 505.565,293.993 503.932,293.573 C 502.299,293.153 501.117,292.184 500.385,290.667 C 499649,289.142 499.614,287.607 500.279,286.063 C 500.945,284.519 502.171,283.316 503.959,282.454 C 504.845,282.027 505.754,281.732 506.687,281.57 C 507.62,281.408 509.09,281.333 511.097,281.346 Z" marker-start="none" marker-end="none"/>
        <path d="M 527.418,274.031 L 526.417,270.681 L 512.481,274.846 L 517.943,293.126 L 522.498,291.765 L 518.036,276.835 L 527.418,274.031 Z" marker-start="none" marker-end="none"/>
        <path d="M 538.132,288.079 L 534.665,269.318 L 529.991,270.181 L 533.458,288.942 L 538.132,288.079 Z" marker-start="none" marker-end="none"/>
        <path d="M 559.023,286.598 L 558.253,267.535 L 554.255,267.696 L 544.214,280.335 L 543.721,268.121 L 538.972,268.313 L 539.742,287.377 L 544095,287.201 L 553.804,275.136 L 554.275,286.79 L 559.023,286.598 Z" marker-start="none" marker-end="none"/>
        <path d="M 577.74,287.775 L 578.321,283.65 C 575.75,284.474 573.315,284.724 571.016,284.401 C 568.798,284.088 567.168,283.289 566.127,282.002 C 565.085,280.715 564.686,279.206 564.93,277.475 C 565.164,275.816 565.953,274.557 567.296,273.698 C 568.64,272.839 570.29,272.548 572.247,272.823 C 573.284,272.969 574.293,273.341 575.276,273.939 L 574.965,276.144 L 572.233,275.759 L 571.745,279.221 L 579.197,280.271 L 580.285,272.549 C 579.642,271.695 578.59,270.924 577.128,270.235 C 575.667,269.546 574.188,269.097 572691,268.886 C 569.4,268.422 566.57,268.95 564.2,270.469 C 561.83,271.988 560.447,274.149 560.052,276.953 C 559.648,279.82 560.376,282.306 562.236,284412 C 564.095,286.517 566.706,287.807 570.07,288.281 C 572.846,288.672 575403,288.503 577.74,287.775 Z" marker-start="none" marker-end="none"/>
        <path d="M 606.751,285.432 L 608.309,281.568 C 606.57,279.502 604489,277.981 602.066,277.003 C 598.924,275.737 596.073,275.595 593.511,276.58 C 590.95,277.564 589.156,279.327 588.131,281.868 C 587.106,284.41 587.218,286.963 588.466,289.528 C 589.714,292.093 591.921,294.014 595.087,295.291 C 597.612,296.31 599.958,296.652 602.125,296.318 L 603.713,292.379 C 601.082,292.722 598.808,292.507 596.891,291.734 C 595.008,290.974 593.672,289.849 592.885,288.358 C 592.097,286.867 592.018,285.34 592.648,283.778 C 593.281,282.208 594.393,281.149 595.983,280.602 C 597.573,280.056 599.288,280.154 601.129,280.896 C 602.041,281.264 602.871,281.738 603.618,282.319 C 604.365,282.901 605.409,283.938 606.751,285.432 Z" marker-start="none" marker-end="none"/>
        <path d="M 622.895,292.248 L 624.672,289.237 L 612.146,281.844 L 602.449,298.274 L 606.542,300.69 L 614.463,287.271 L 622.895,292.248 Z" marker-start="none" marker-end="none"/>
        <path d="M 625.306,314.283 L 628.948,317.337 L 635.907,309.039 C 637.697,306.904 638.423,304.756 638.085,302.595 C 637.746,300.434 636.405,298.37 634.062,296.404 C 631.745,294.462 629.479,293.512 627.263,293.555 C 625.047,293.597 623.061,294.665 621.306,296.758 L 614.329,305.077 L 617.981,308.14 L 625.028,299.737 C 625.882,298.718 626.9,298.182 628.081,298.126 C 629.262,298.071 630.393,298.497 631.474,299.404 C 632.598,300.346 633.233,301.413 633.379,302.606 C 633.526,303.798 633.114,304.973 632.142,306.131 L 625.306,314.283 Z" marker-start="none" marker-end="none"/>
        <path d="M 629.408,317.976 L 634.777,324.239 C 636.056,325.732 637.422,326.597 638.872,326.835 C 640.323,327.072 641.539,326.77 642.521,325.929 C 643.779,324.85 644.178,323.363 643.716,321.468 C 644.832,322.239 645.949,322.604 647.065,322.563 C 648.182,322.523 649.183,322.124 650.068,321.366 C 651.326,320.287 651.978,318.978 652.026,317.438 C 652.073,315.899 651.377,314.289 649.937,312.61 L 643.893,305.559 L 629.408,317.976 Z M 635.155,319.309 L 638.255,316.652 L 639.873,318.538 C 640.371,319.119 640.611,319.699 640.592,320.279 C 640.573,320.859 640.339,321.341 639.89,321.726 C 639.447,322.105 638.942,322.257 638.373,322.181 C 637.804,322.105 637.271,321.777 636.773,321.196 L 635.155,319.309 Z M 640.91,314.376 L 644.332,311.443 L 646.074,313.475 C 646.897,314.436 647.357,315.241 647.452,315.891 C 647.547,316.54 647.267,317.147 646.61,317.71 C 646.106,318.142 645.535,318.284 644897,318.135 C 644.26,317.986 643.654,317.576 643.079,316.906 L 640.91,314.376 Z" marker-start="none" marker-end="none"/>
       </g>
      </g>
      <path d="M 459.668,333.931 C 462.596,333.931 464.973,331.554 464.973,328.626 C 464.973,325.698 462.596,323.321 459.668,323.321 C 456.74,323.321 454.363,325.698 454.363,328.626 C 454.363,331.554 456.74,333.931 459.668,333.931 Z" fill="#fffc00" stroke-width="0.332" marker-start="none" marker-end="none" stroke-miterlimit="79.8403193612775"/>
      <path d="M 652.728,337.005 C 655.656,337.005 658.033,334.628 658.033,331.7 C 658.033,328.772 655.656,326.395 652.728,326.395 C 649.8,326.395 647.423,328.772 647.423,331.7 C 647.423,334.628 649.8,337.005 652.728,337.005 Z" fill="#fffc00" stroke-width="0.332" marker-start="none" marker-end="none" stroke-miterlimit="79.8403193612775"/>
      <g id="Group_4" fill-rule="nonzero">
       <path d="M 469.782,350.434 C 447.786,397.435 467.991,453.341 514.906,475.295 C 561.828,497.252 617.69,476.942 639.683,429.942 C 661.683,382.933 641.481,327.039 594.558,305.08 C 547.644,283.126 491.778,303.427 469.782,350.434 Z" fill="none" stroke-width="3.995" stroke-linejoin="round" stroke-linecap="round" marker-start="none" marker-end="none" stroke-miterlimit="79.8403193612775"/>
       <g id="Group_5" stroke-width="0.499" fill="#feff00" stroke-miterlimit="79.8403193612775">
        <path d="M 435.867,354.551 L 439.161,355.724 L 441.973,347.824 L 445.987,349.253 L 443.174,357.153 L 446.468,358.325 L 449.28,350.426 L 456.652,353.051 L 458.246,348.573 L 440.274,342.174 L 435.867,354.551 Z" marker-start="none" marker-end="none"/>
        <path d="M 432.672,368.499 L 449.788,380.444 L 450.761,375.43 L 447.36,373.171 L 448.986,364.792 L 452.956,364.116 L 453.916,359.169 L 433.723,363.083 L 432.672,368.499 Z M 444.357,371.155 L 437.662,366.726 L 445.475,365.391 L 444.357,371.155 Z" marker-start="none" marker-end="none"/>
        <path d="M 430.917,380.787 L 430.751,389.307 C 430.714,391.154 431.22,392.667 432.267,393.844 C 433.314,395.021 434.597,395.624 436.117,395.654 C 438.22,395.695 439.798,394.633 440.851,392.468 C 441.26,393.442 442.411,394.377 444.306,395.275 C 446.201,396.172 447.987,397.038 449.664,397.872 L 449.767,392.643 C 449.145,392.321 447.958,391.758 446.207,390.955 C 444457,390.151 443.336,389.469 442.846,388.908 C 442.357,388.348 442.118,387.753 442.13,387.125 L 442.157,385.76 L 449.898,385.912 L 449.991,381.16 L 430.917,380.787 Z M 434.32,385.607 L 438.661,385.692 L 438.612,388.204 C 438.596,389.005 438.395,389.636 438.008,390.098 C 437.621,390.559 437.077,390.783 436.376,390.769 C 434.938,390.741 434.237,389.821 434.273,388.01 L 434.32,385.607 Z" marker-start="none" marker-end="none"/>
        <path d="M 434.277,421.135 L 453.068,417.844 L 452.378,413.903 L 438.52,405.627 L 450.559,403.518 L 449.739,398.837 L 430.948,402.129 L 431.699,406.42 L 444.944,414.442 L 433.457,416.454 L 434.277,421.135 Z" marker-start="none" marker-end="none"/>
        <path d="M 436.224,427.465 L 439.163,435.172 C 439.864,437.009 440.857,438.285 442.142,438.998 C 443.428,439.711 444.674,439.838 445.882,439377 C 447.43,438.786 448.307,437.521 448.513,435.582 C 449.303,436.684 450231,437.404 451.295,437.743 C 452.36,438.083 453.437,438.045 454.526,437.63 C 456.074,437.039 457.13,436.027 457.694,434.594 C 458.259,433.161 458.147,431.411 457.359,429.344 L 454.049,420.667 L 436.224,427.465 Z M 441.184,430.66 L 444.999,429.205 L 445.885,431.527 C 446.158,432.242 446.187,432.869 445.974,433.408 C 445.76,433.947 445.377,434.322 444.824,434.533 C 444.28,434.741 443.753,434.713 443.243,434.45 C 442.733,434.186 442.342,433.697 442.07,432.982 L 441.184,430.66 Z M 448.266,427.959 L 452.476,426.354 L 453.43,428.854 C 453.881,430.037 454.042,430.95 453.912,431.594 C 453.782,432.237 453.313,432.713 452.505,433.022 C 451.884,433.258 451.299,433.199 450.75,432.844 C 450.2,432.488 449.768,431.898 449.453,431.073 L 448.266,427.959 Z" marker-start="none" marker-end="none"/>
        <path d="M 449.311,456.044 C 451.027,458.805 453.249,460.522 455.977,461.195 C 458.706,461.868 461.176,461.518 463.387,460.143 C 465.629,45875 467.036,456.675 467.607,453.919 C 468.177,451.163 467.619,448.429 465.932,445.714 C 464.226,442.97 462.018,441.244 459.307,440.539 C 456.596,439.833 454.111,440.182 451.853,441.585 C 449.634,442.965 448.226,445.028 447.627,447.773 C 447.03,450.52 447.591,453.276 449.311,456.044 Z M 462.568,447.805 C 463.52,449.336 463.832,450.852 463.505,452.352 C 463.178,453.852 462.276,455.062 460.799,455.979 C 459.315,456.902 457.829,457.177 456.343,456.803 C 454.857,456.43 453.638,455.478 452.686,453.947 C 451.73,452.408 451.412,450.888 451.733,449.386 C 452.054,447.884 452.957,446.672 454.441,445.749 C 455.918,444.832 457.403,444.56 458.896,444.935 C 460.388,445.309 461.612,446.266 462.568,447.805 Z" marker-start="none" marker-end="none"/>
        <path d="M 458.802,469.275 L 464.614,475.508 C 465.875,476.859 467.291,477.593 468.861,477.709 C 470.432,477.825 471.774,477.364 472.886,476327 C 474.424,474.893 474.817,473.032 474.066,470.745 C 475.037,471.159 476.515,471.029 478.5,470.354 C 480.485,469.679 482.37,469.057 484.155,468.488 L 480.587,464.663 C 479.917,464.865 478.673,465.287 476.857,465.929 C 475041,466.571 473.762,466.862 473.02,466.8 C 472.278,466.739 471.693,466.479 471.264,466.019 L 470.333,465.021 L 475.996,459.74 L 472.754,456.264 L 458802,469.275 Z M 464.601,470.367 L 467.776,467.405 L 469.49,469.243 C 470.037,469.829 470.331,470.422 470.375,471.022 C 470.418,471.623 470.184,472.162 469.671,472.64 C 468.619,473.622 467.476,473.45 466.24,472.124 L 464.601,470.367 Z" marker-start="none" marker-end="none"/>
        <path d="M 480.734,490.125 C 483.353,492.05 486.054,492.818 488.837,492.428 C 491.62,492.039 493.782,490.795 495.324,488.696 C 496.888,486.569 497.422,484.12 496.927,481.35 C 496.432,478.579 494.897,476.248 492.322,474.356 C 489.717,472.442 487.026,471.662 484.247,472.015 C 481.468,472.368 479.291,473.616 477.717,475.758 C 476.17,477.863 475.629,480.302 476.095,483.073 C 476.561,485.845 478.107,488.195 480.734,490.125 Z M 489.976,477.547 C 491.429,478.615 492.283,479.905 492.537,481.42 C 492.791,482.934 492.403,484.392 491.374,485.793 C 490.339,487.202 489.062,488.009 487.544,488.215 C 486.025,488.421 484.539,487.991 483.087,486.923 C 481.627,485.85 480.766,484.557 480.506,483.044 C 480.246,481.53 480.633,480.069 481.668,478.661 C 482.697,477.26 483.975,476.455 485.5,476.249 C 487.024,476.041 488.517,476475 489.976,477.547 Z" marker-start="none" marker-end="none"/>
        <path d="M 508.282,505.343 L 512.624,507.275 L 517.026,497.381 C 518.159,494.835 518.265,492.571 517.344,490.587 C 516.422,488.603 514.565,486.989 511.77,485.745 C 509.009,484.516 506.569,484.228 504.45,484.88 C 502332,485.531 500.718,487.105 499.607,489.6 L 495.193,499.519 L 499.548,501.457 L 504.006,491.438 C 504.546,490.224 505.376,489.427 506.496,489.048 C 507.617,488.67 508.821,488.768 510.11,489.341 C 511.449,489.937 512.354,490.788 512.823,491.894 C 513.293,493 513.221,494.243 512.606,495.624 L 508.282,505.343 Z" marker-start="none" marker-end="none"/>
        <path d="M 537.133,512.034 L 538.029,507.967 C 535.402,508.591 532.956,508.653 530.688,508.154 C 528.501,507.672 526.938,506.75 525.998,505.387 C 525.059,504.024 524.777,502.489 525.153,500.782 C 525.513,499.146 526396,497.951 527.802,497.198 C 529.207,496.445 530.875,496.281 532.804,496.706 C 533.827,496.931 534.805,497.379 535.738,498.051 L 535.26,500.225 L 532.565,499.632 L 531.813,503.046 L 539.162,504.665 L 540.839,497.05 C 540.264,496.149 539.274,495.299 537.87,494.501 C 536.466,493.702 535.026,493.14 533.549,492.815 C 530.304,492.1 527.442,492.409 524.962,493.741 C 522.482,495.073 520.939,497.122 520.328,499.887 C 519.706,502.715 520.242,505.249 521934,507.491 C 523.625,509.733 526.13,511.219 529.447,511.95 C 532.185,512.553 534.747,512.581 537.133,512.034 Z" marker-start="none" marker-end="none"/>
        <path d="M 563.309,514.327 L 563.424,495.25 L 558.672,495.221 L 558.625,502.937 L 549.121,502.88 L 549.167,495.164 L 544.415,495.136 L 544.301,514.213 L 549.053,514.242 L 549.099,506.581 L 558.603,506.638 L 558.557,514.298 L 563.309,514.327 Z" marker-start="none" marker-end="none"/>
        <path d="M 587.886,500.278 L 591.846,499.283 C 590.184,497.11 58848,495.576 586.734,494.682 L 589.434,489.681 L 583.818,491.091 L 582.837,492.901 C 580.759,492.212 578.677,492.129 576.593,492.653 C 574.915,493.074 573.637,493.89 572.759,495.101 C 571.88,496.312 571.615,497.611 571.964,498998 C 572.487,501.081 574.307,502.478 577.423,503.188 C 576.687,505.006 576.471,506.515 576.773,507.716 C 577.116,509.085 577.936,510.087 579.232,510724 C 580.527,511.361 581.997,511.473 583.639,511.06 C 585.211,510.665 586392,509.93 587.182,508.854 C 587.972,507.777 588.207,506.599 587.885,505.319 C 587.433,503.518 585.888,502.226 583.251,501.442 L 585.039,497.909 C 586.033,498.505 586.982,499.294 587.886,500.278 Z M 581.79,504.147 C 583.197,504.553 584.006,505.176 584.216,506.015 C 584.329,506.466 584.264,506.876 584.019,507.248 C 583.774,507.619 583.4,507.868 582.897,507.994 C 582.402,508.118 581.96,508.086 581.57,507.898 C 581.18,507.71 580.935,507.412 580.833,507.006 C 580.655,506.3 580.974,505.346 581.79,504.147 Z M 581.29,495.824 L 578.917,500.278 C 577.45,499.783 576.611,499.111 576.398,498.264 C 576.249,497.672 576.351,497.104 576.702,496.561 C 577.054,496.017 577.547,495.666 578.183,495.506 C 579.075,495.282 580.11,495.388 581.29,495.824 Z" marker-start="none" marker-end="none"/>
        <path d="M 614.667,483.772 L 612.727,480.086 C 610.026,480.077 607.52,480.681 605.208,481.897 C 602.211,483.475 600.26,485.558 599.355,488.149 C 598.449,490.74 598.635,493.247 599.911,495.672 C 601.187,498.097 603.207,499.663 605.971,500.369 C 608.734,501.075 611.627,500.633 614.648,499.043 C 617.057,497.776 618.834,496.208 619.981,494.339 L 618.003,490.58 C 616.563,492.81 614.928,494.405 613.099,495.368 C 611.303,496.313 609.581,496.604 607.934,496.241 C 606.288,495.879 605.072,494.952 604.288,493.462 C 603.499,491.963 603.41,490.431 604.021,488.864 C 604.632,487.298 605.816,486.053 607.572,485.129 C 608.442,484.671 609.341,484.344 610.267,484.15 C 611.193,483.956 612.66,483.83 614.667,483.772 Z" marker-start="none" marker-end="none"/>
        <path d="M 634.652,485.004 L 629.276,464.836 L 625.299,468.04 L 626.441,471.96 L 619.794,477.315 L 616.324,475.271 L 612.4,478.433 L 630.356,488.465 L 634.652,485.004 Z M 627.436,475.438 L 629.695,483.14 L 622.863,479.122 L 627.436,475.438 Z" marker-start="none" marker-end="none"/>
        <path d="M 645.914,463.306 L 655.266,462.9 L 657.839,459.659 L 642.895,447.8 L 639.941,451.522 L 649.269,458.925 L 641.383,459.239 L 640.933,459.806 L 642.418,467.557 L 633.09,460.154 L 630.136,463.877 L 645.079,475737 L 647.652,472.495 L 645.914,463.306 Z" marker-start="none" marker-end="none"/>
        <path d="M 661.169,454.074 L 664.99,446.763 C 665.901,445.021 666197,443.432 665.879,441.997 C 665.56,440.562 664.828,439.545 663.683,438.946 C 662.214,438.178 660.686,438.361 659.098,439.493 C 659.398,438.17 659.323,436.998 658.871,435.976 C 658.419,434.954 657.676,434.174 656.644,433.633 C 655.175,432.866 653.718,432.746 652.271,433.274 C 650.824,433.802 649.588,435.046 648.563,437.006 L 644.261,445.237 L 661.169,454.074 Z M 660.272,448.242 L 656.654,446.351 L 657.805,444.148 C 658.159,443.47 658.608,443.033 659.154,442.835 C 659.699,442.637 660.234,442.675 660.758,442.949 C 661.274,443.219 661.603,443.632 661.744,444.189 C 661.884,444.745 661.778,445.362 661.423,446.04 L 660.272,448.242 Z M 653.555,444.732 L 649.561,442.644 L 650.801,440.272 C 651.387,439.151 651.964,438.425 652.532,438.095 C 653.1,437.765 653.767,437.801 654.534,438.201 C 655.123,438.509 655.466,438.987 655.565,439.634 C 655.663,440.281 655.508,440.996 655.099,441.779 L 653.555,444.732 Z" marker-start="none" marker-end="none"/>
        <path d="M 660.001,416.917 L 656.68,415.824 L 652.285,429.186 L 670.407,435.147 L 674.743,421.968 L 671.422,420.875 L 668.571,429.541 L 664.77,428.29 L 667.489,420.027 L 664.168,418.934 L 661.449,427.198 L 657.09,425.764 L 660.001,416.917 Z" marker-start="none" marker-end="none"/>
        <path d="M 676.032,416.835 L 677.347,408.415 C 677.633,406.589 677.336,405.023 676.458,403.715 C 675.579,402.408 674.389,401.637 672.887,401402 C 670.809,401.077 669.102,401.916 667.766,403.919 C 667.493,402.899 666.478,401.817 664.722,400.672 C 662.965,399.527 661.313,398.428 659.763,397375 L 658.956,402.542 C 659.529,402.945 660.628,403.663 662.255,404.696 C 663.881,405.729 664.899,406.556 665.308,407.177 C 665.718,407.799 665.875,408.42 665.778,409.04 L 665.567,410.389 L 657.916,409.194 L 657.183,413.89 L 676.032,416.835 Z M 673.311,411.6 L 669.021,410.929 L 669.409,408.446 C 669.533,407.655 669.817,407.057 670.263,406.652 C 670.708,406.247 671.278,406098 671.97,406.207 C 673.392,406.429 673.962,407.435 673.682,409.225 L 673311,411.6 Z" marker-start="none" marker-end="none"/>
        <path d="M 663.184,382.431 L 659.688,382.405 L 659.583,396.949 L 678.66,397.087 L 678.695,392.334 L 663.113,392.222 L 663.184,382.431 Z" marker-start="none" marker-end="none"/>
        <path d="M 660.871,366.982 L 657.413,367.5 L 659.496,381.41 L 678363,378.586 L 676.309,364.864 L 672.851,365.382 L 674.202,374.404 L 670.245,374.996 L 668.957,366.393 L 665.5,366.91 L 666.788,375.514 L 662.25,376.193 L 660.871,366.982 Z" marker-start="none" marker-end="none"/>
        <path d="M 655.379,360.465 L 663.882,357.78 L 675.837,361.896 L 674.101,356.401 L 667.139,354.26 L 671.601,348.483 L 669.874,343.013 L 662.452,353.248 L 653.948,355.933 L 655.379,360.465 Z" marker-start="none" marker-end="none"/>
       </g>
      </g>
     </g>
     <g id="Group_6" stroke-miterlimit="79.8403193612775">
      <path d="M 525.633,317.495 C 504.743,322.505 495.814,330.09 487.775,344.006 C 481.988,354.022 481.409,368.829 486.635,388.559 C 490.444,402.947 493.303,412.506 493.594,420.478 C 493.86,427.782 492,433.743 487.405,440.926 L 486.633,442.065 L 487.49,442.77 C 491.756,446.285 500.583,453.503 510079,460.959 L 514.856,464.678 L 522.081,463.04 C 530.423,461.254 538.295,460.005 544.604,460.54 C 547.988,460.826 550.994,461.653 553.439,463.144 L 554.897,464.258 L 554.873,305.282 L 553.181,306.431 C 547.729,310.11 541.879,313.6 525.633,317.495 Z" stroke="#fcfc7f" fill="#ff0000" stroke-width="0.349" marker-start="none" marker-end="none" stroke-miterlimit="159.36127744511"/>
      <path d="M 585.74,319.062 C 606.631,324.071 615.559,331.657 623.599,345.573 C 629.386,355.589 629.965,370.396 624.738,390.126 C 620.929,404.514 618.071,414.072 617.78,422.045 C 617.514,429.349 619.373,435.31 623.968,442.493 L 624.74,443.632 L 623.884,444.337 C 619.617,447.852 610.79,455.07 601.295,462.526 L 596.518,466.245 L 589.292,464.607 C 580.951,462.821 573.078,461.572 566.769,462.107 C 563.385,462.393 560.38,463.219 557.935,464.711 L 556.476,465.825 L 556.5,306.849 L 558.192,307.998 C 563.644,311.677 569.495,315.167 585.74,319.062 Z" stroke="#fcfc7f" fill="#f7f7b9" stroke-width="0.349" marker-start="none" marker-end="none" stroke-miterlimit="159.36127744511"/>
      <path d="M 525.851,321.349 C 504.96,326.358 496.032,333.944 487.992,347.859 C 482.205,357.876 481.627,372.682 486.853,392.413 C 507.638,399.348 508.495,401.06 519.198,405.341 L 555.159,392.07 L 555.091,309.136 L 553.399,310.285 C 547.947,313.964 542.097,317.453 525.851,321.349 Z" stroke="#fcfc7f" fill="#feff00" stroke-width="0.349" marker-start="none" marker-end="none" stroke-miterlimit="159.36127744511"/>
      <g id="Group_7" stroke="none" stroke-width="0.332" stroke-miterlimit="159.36127744511">
       <path d="M 584.045,416.819 L 584.045,387.706 L 589.216,387.706 L 589.216,416.819 L 584.045,416.819 Z" stroke-linejoin="miter" marker-start="none" marker-end="none" fill="url(#LinearGradient)"/>
       <g id="Group_8" fill="#04a000">
        <path d="M 576.131,443.27 C 578.188,443.27 581.324,443.715 583.475,444.309 C 583.772,443.345 576.016,436.052 573.683,434.888 C 580.063,436.668 575.909,435.778 583.994,437.781 C 580.063,430.066 564.451,419.054 565.895,419.236 C 569.9,421.016 582.629,427.712 583.623,428.508 C 584.307,429.055 583.409,427.262 583.178,426.877 C 581.386,423.887 579.368,420.627 577.096,417.9 C 574.887,415.25 564.782,406.477 562.26,404.103 C 569.9,408.109 574.849,411.118 581.027,414.414 C 582.139,415.007 582.659,415.156 586.442,415.304 C 586.442,422.961 587.719,450.967 585.923,454.546 C 585.923,454.134 585.997,450.836 576.131,443.27 Z" marker-start="none" marker-end="none"/>
        <path d="M 595.715,443.567 C 593.486,444.003 590.893,444.086 588.742,444.68 C 588.964,440.526 596.646,436.497 598.978,435.333 C 592.599,437.113 597.049,435.927 588.964,437.929 C 592.895,430.215 606.99,421.832 607.138,420.645 C 603.133,422.426 589.736,428.009 588.742,428.805 C 588.529,428.976 588.426,428.884 588.393,428.665 C 588.321,428.18 589.028,427.142 589.187,426.877 C 590.98,423.887 593.442,421.369 595.715,418.642 C 597.924,415.992 609.141,406.699 611.441,404.029 C 603.8,408.034 597.075,411.052 590.897,414.349 C 589.784,414.942 589.265,415.091 585.482,415.239 C 585.482,422.896 584.205,450.902 586.001,454.48 C 586.001,454.069 585.849,451.133 595.715,443567 Z" marker-start="none" marker-end="none"/>
       </g>
      </g>
      <g id="Group_9" stroke="#814700" stroke-width="5.078" stroke-miterlimit="159.36127744511">
       <path d="M 556.268,379.339 C 564.035,387.106 584.44,389.088 589.83,384.55 C 604.389,372.29 619.407,379.492 626.456,385.163 L 626.917,385.163" fill="none"/>
       <path d="M 555.502,365.7 C 563.269,373.467 584.94,376.264 591.056,371.677 C 606.381,360.183 618.488,366.466 627.529,373.208" fill="none"/>
       <path d="M 556.115,351.601 C 565.923,360.949 584.335,362.035 590.443,357.424 C 606.074,345.625 617.262,352.52 628.179,358.728" fill="none"/>
       <path d="M 556.555,339.408 C 564.322,347.175 585.827,348.922 591.21,344.705 C 606.074,333.058 613.431,337.808 622.319,343.479" fill="none"/>
      </g>
      <g id="Group_10" stroke="none" stroke-width="0.332" fill="#000000" stroke-miterlimit="159.36127744511">
       <path d="M 555.433,303.292 L 552.941,304.716 L 552.91,474.221 L 552.91,474.262 L 557.904,474.303 C 558.023,466.979 561.665,464.307 568.129,463.758 C 575.186,463.16 585,465.253 596.069,467.85 L 597.224,468.122 L 598.165,467.397 C 612.882,456.043 627.846,443.59 627.85,443.586 L 629.628,442.107 L 628.288,440.221 C 622.829,432.537 621.04,427.323 621.277,420.812 C 621.528,413.943 624.006,405.617 627.742,391.512 C 632.841,372.256 632.65,356.552 626.153,345.306 C 617.769,330.796 608.084,322.771 586.939,317.7 C 567.26,312.982 564.984,309.254 556.741,304.181 L 555.433,303.292 Z M 585.774,322.557 C 605.668,327.328 614.171,334.551 621.827,347.804 C 627.339,357.342 627.89,371.443 622.913,390.233 C 619.285,403.935 616.563,413.038 616.286,420.63 C 616.032,427.586 617.804,433.263 622.18,440.103 L 622.914,441.188 L 622.099,441.859 C 618.036,445.206 609.629,452.08 600.587,459.181 L 596.038,462.723 L 589.156,461.162 C 581.213,459.462 573.715,458.272 567.707,458.782 C 564.485,459.055 561.623,459.841 559.294,461.262 L 557.905,462.322 L 557.928,310.926 L 559.54,312.02 C 564.731,315.524 570.303,318.847 585.774,322.557 Z" marker-start="none" marker-end="none"/>
       <path d="M 555.433,303.292 L 557.626,304.707 L 557.651,474.213 L 557.651,474.255 L 552.657,474.296 C 552.538,466.971 548.896,464.3 542.432,463.751 C 535.375,463.152 525.561,465.245 514.492,467.843 L 513.336,468.115 L 512.396,467.39 C 497.679,456.035 482.715,443.582 482.711,443.579 L 480.933,442.099 L 482.273,440.213 C 487.732,432.53 489.521,427.315 489.284,420.804 C 489.033,413.935 486.555,405.61 482.819,391.504 C 477.72,372.249 477.911,356.545 484.408,345.298 C 492.792,330.789 502.477,322.764 523.622,317.693 C 542.617,313.138 545.398,309.507 552.98,304.699 C 553.254,304.525 553.533,304.35 553.82,304.174 L 555.433,303.292 Z M 524.787,322.55 C 504.893,327.321 496.39,334.544 488.734,347.796 C 483.222,357.335 482.671,371.436 487.648,390.225 C 491.276,403.928 493.998,413.03 494.275,420.623 C 494.529,427.578 492.757,433.256 488.381,440.095 L 487.647,441.18 L 488.462,441.852 C 492.525,445.199 500.932,452.073 509.974,459.173 L 514.523,462.715 L 521.405,461.155 C 529.348,459.455 536.846,458.265 542.854,458.774 C 546.076,459.047 548.938,459.834 551.267,461.255 L 552.656,462.315 L 552.633,310.919 L 551.021,312.013 C 545.83,315.517 540.258,318.84 524.787,322.55 Z" marker-start="none" marker-end="none"/>
      </g>
      <path d="M 490.261,402.655 L 519.367,415.147 L 552.483,402.655 L 552.6,391.401 L 519.84,403.657 L 487.904,390.399 L 490.261,402.655 Z" stroke="#000000" fill="#ff9900" stroke-width="0.332" marker-start="none" marker-end="none" stroke-miterlimit="159.36127744511"/>
      <g id="Group_11" stroke="#000000">
       <path d="M 502.004,447.031 C 502.271,447.3 502.689,447.731 503.214,447.687 C 504.467,448.212 506.19,447.99 506.975,447.206 C 508.066,449.389 512.03,447.638 513.38,446.738 C 513.768,446.478 513.968,445.371 514.474,445371 C 515.56,445.371 516.577,444.05 516.279,442.856 C 516.117,442.212 517.198,442.103 517.427,441.762 C 518.13,440.707 518.901,440.667 520.051,439.903 C 521.024,439.257 523.43,439.573 524.536,439.848 C 526.285,440.284 528.35,440.559 530.168,440.559 C 531.145,440.559 531.799,440.093 532.574,439.903 C 536.425,438.955 537.431,435.106 541.761,434.581 C 543.586,434.36 545.348,434.653 545.756,435.368 C 545.949,435.706 546.178,436.126 546.178,436.899 C 546.178,437.246 546.149,438.415 544.371,439.508 C 542.545,440.63 541.979,439.531 541.513,439.129 C 541.208,438.865 539.595,439.202 539.049,439.202 C 538.221,439.202 536.828,440.701 536.237,441.216 C 535.536,441.826 532.628,441.926 534.542,442.692 C 535.902,443.236 537.294,443.793 538.772,443.576 C 539.939,443.404 541.28,442.716 542.359,442.249 C 543.525,441.744 544.598,441.401 545.435,441.01 C 547.272,440.149 548.278,437.759 548.219,436.665 C 547.995,432.474 543.632,431.745 540.667,432.729 C 539.145,433.234 537.914,433977 537.897,433.983 C 537.674,434.057 536.634,435.013 536.401,435.091 C 536.137,435.178 536.449,434.828 536.456,434.818 C 536.605,434.568 536.639,43423 536.784,433.943 C 537.085,433.343 537.35,432.836 537.495,432.247 C 538.641,427.612 540.405,427.991 540.666,424.319 C 540.733,423.364 541.469,421.576 541.377,420.71 C 541.339,420.342 539.952,419.19 539.737,418.905 C 539.618,418.747 537.095,418.718 535.783,418.733 C 535.126,418.74 535.142,419.418 535.317,419.972 C 535.475,420.477 536.131,420.749 536.177,420.774 C 536.571,420.993 536.946,421.352 537.037,421.809 C 537.219,422.723 536.772,424.124 536.395,424.754 C 536.009,425.399 535.945,425.545 535.526,426.069 C 535.078,426.628 534.408,427.197 533.801,427.684 C 532.71,428.559 531.337,429.828 530.418,429.492 C 529.449,429.139 529.796,427.506 529.952,426.883 C 530.436,424.939 532.299,423.705 530.113,422.46 C 529.948,422.367 528.752,420.873 528.581,420.759 C 527.309,419.911 528.173,418.529 525.491,418.821 C 524.51,418.927 523.581,418.536 523.581,419.768 C 523.581,420.428 524.324,420.759 524776,420.964 C 524.942,421.039 525.811,421.721 526.073,421.97 C 526.496,422369 526.691,422.854 526.723,423.225 C 526.878,425.031 526.803,425.039 526.803,426.125 C 525.884,428.326 524.742,427.119 524.317,426.834 C 523.87,426.535 523.585,425.829 523.085,425.629 C 521.875,425.146 521.188,425.423 520.255,424.798 C 519.612,424.367 519.031,423.222 518.799,422.567 C 518.591,421.99 517.982,421.124 518.055,419.71 C 517.791,419.048 517.07,418.697 516.918,418.718 C 515.767,418.879 514.367,418.538 513.448,418.908 C 513.024,419.078 512.925,420.037 512.998,420.327 C 513.221,421.223 513.448,421.532 514.06,421.59 C 514.352,422.218 515.489,424.025 515.343,424.433 C 515.193,424.853 514.177,424.986 514.075,424.973 C 513.229,424.863 512.369,425.06 511.8,423.777 C 509.731,424.405 509.701,425.746 509.322,425.615 C 509.016,425.338 508.473,424.419 508.214,424.156 C 507.498,423.429 505.947,422.094 505.692,421.328 C 505.353,420.312 504.89,418.5 503.866,418.632 C 503.049,418.737 502.399,418.602 501.581,418.602 C 500.613,418.602 499.365,418.279 499.365,419.331 C 499.365,420.599 500.928,420.976 501.741,421.518 C 501.926,421.641 502.469,422.577 502.554,422.788 C 503.176,424.344 504.808,425.758 504.795,427.6 C 504.788,428.661 504.131,428.662 503.782,427.495 C 503.718,427.281 503.14,428.472 502.682,429.227 C 502.417,429.663 502.09,430.01 501.989,430.163 C 50188,430.326 501.322,430.076 501.056,430.076 C 500.298,430.076 499.997,431.35 499.933,432.044 C 499.758,433.925 499.104,435.897 498.635,437.773 C 498.607,439.173 499.564,440.741 500.05,441.637 C 499.919,442.147 500.021,443.051 500.079,443.503 C 500.222,444.606 501.099,444.728 501.508,445.442 C 501.537,446.025 501.537,446.477 502.004,447.031 Z" fill="#feff4b" stroke-width="0.332" marker-start="none" marker-end="none" stroke-miterlimit="159.36127744511"/>
       <path d="M 504.52,441.765 C 503.846,442.664 502.172,442.154 502.054,441.207 C 501.953,440.406 502.329,440.256 503.005,439.179 C 502.459,438.528 502.331,437.677 502.73,436.3 C 502.922,435.637 503.818,435.073 504.107,434.448 C 504.474,433.654 504.447,432.606 504.857,432.119 C 505.112,431.818 505.158,431.518 506.31,431.518 C 505.078,432.136 505.5,429.219 507.317,429.219 C 509.509,429.219 509.339,430.417 509.584,431.562 C 510.29,431.894 510.59,432.921 510.816,433.997 C 510.941,434.594 511.337,435.056 511.717,435.424 C 511.744,435.449 512.043,435.925 512.067,435.949 C 512.458,436.34 512.607,437.485 512.117,439.229 C 511.648,439.346 512.729,439.744 512.867,440.205 C 513.695,442.934 510.29,442.934 510.415,441.538" fill="none" stroke-width="0.332" stroke-miterlimit="159.36127744511"/>
       <path d="M 505.684,434.272 C 505.81,434.02 505.981,433.55 506.159,433.371 C 507.54,431.977 508.76,433.551 509.464,434.272" fill="none" stroke-width="0.332" stroke-miterlimit="159.36127744511"/>
       <path d="M 506.31,431.493 C 507.175,431.493 507.686,431.518 507.586,432.695 C 507.586,431.352 508.316,431.569 509.364,431.569" fill="none" stroke-width="0.332" stroke-miterlimit="159.36127744511"/>
       <path d="M 504.741,436.856 C 504.49,436.615 504.665,436.076 505.182,435.905 C 505.951,435.651 505.623,436.666 506.511,435.947 C 505.975,436.828 505.22,437.315 504.741,436.856 Z" fill="none" stroke-width="0.249" marker-start="none" marker-end="none" stroke-miterlimit="159.36127744511"/>
       <path d="M 510.364,436.869 C 510.616,436.627 510.44,436.088 509.923,435.918 C 509.155,435.664 509.482,436.679 508.594,435.959 C 509.13,436.841 509.886,437.328 510.364,436.869 Z" fill="none" stroke-width="0.249" marker-start="none" marker-end="none" stroke-miterlimit="159.36127744511"/>
      </g>
      <g id="Group_12">
       <path d="M 497.048,359.897 C 498.833,345.726 506.021,339.085 520.755,342.961 C 534.785,340.28 543.322,345.063 544.19,360.274 C 551.075,372.789 549.164,382.386 534.964,387.912 C 525.19,398.328 515.472,399.476 505.829,387.678 C 492.903,381.602 488.808,372.714 497.048,359.897 Z" stroke="#000000" fill="#000000" stroke-width="0.362" stroke-linejoin="miter" marker-start="none" marker-end="none" stroke-miterlimit="159.36127744511"/>
       <path d="M 501.528,384.265 C 503.148,385.55 506.197,384.503 507.622,382.999 C 508.535,382.035 507.455,381.084 506.988,380.15 C 505.04,376.255 502.636,368.281 502.241,364.007 C 501.863,359.924 493.773,363.532 495.435,366.144 C 498.105,370.341 498.046,379.359 501.528,384.265 Z" stroke="none" fill="#ff0400" stroke-width="0.332" marker-start="none" marker-end="none" stroke-miterlimit="159.36127744511"/>
       <path d="M 527.157,343.87 C 526.138,342.938 524.529,343.975 522.669,344.912 C 521.802,345.349 521.52,348.031 521.666,348.733 C 521.934,350.033 523.181,349.767 524.107,350.248 C 527.973,352.254 535.038,356.963 537.437,360.516 C 540.237,364.664 544.622,355.327 541.744,354.191 C 537.117,352.365 533.197,349.396 527.157,343.87 Z" stroke="none" fill="#ff0400" stroke-width="0.332" marker-start="none" marker-end="none" stroke-miterlimit="159.36127744511"/>
       <path d="M 499.44,354.929 C 498.238,355.61 498.729,357.461 499.045,359.519 C 499.192,360.478 501.656,361.576 502.369,361.655 C 503.688,361.802 503.82,360.533 504.564,359.8 C 507.666,356.744 514.328,351.48 518.448,350297 C 523.258,348.915 515.734,341.859 513.763,344.246 C 510.597,348.082 506.563,350.893 499.44,354.929 Z" stroke="none" fill="#ff0400" stroke-width="0.332" marker-start="none" marker-end="none" stroke-miterlimit="159.36127744511"/>
       <path d="M 544.386,367.354 C 544.958,366.097 543.474,364.888 542.009,363.408 C 541.325,362.719 538.687,363.279 538.064,363.634 C 536.911,364.292 537.55,365.394 537.378,366.425 C 536.664,370.721 534.37,378.895 531.731,382.275 C 528.652,386.22 538.887,387.505 539.079,384.416 C 539.385,379.451 540.996,374.806 544.386,367.354 Z" stroke="none" fill="#ff0400" stroke-width="0.332" marker-start="none" marker-end="none" stroke-miterlimit="159.36127744511"/>
       <path d="M 527.592,390.729 C 528.965,390.885 529.665,388.472 529.913,386.419 C 530.06,385.203 529.313,383.992 528.9,383.417 C 528.384,382.699 525.714,383.464 524.682,383.619 C 522.93,383.883 520.914,384.212 518.843,384.172 C 515.82,384.112 512.695,383.519 510.259,382.885 C 506.428,381.888 507.386,391.3 510.493,390.534 C 512.396,390.064 514.459,390.029 516.521,389.753 C 519.749,389.321 522.664,390.172 527.592,390.729 Z" stroke="none" fill="#ff0000" stroke-width="0.332" marker-start="none" marker-end="none" stroke-miterlimit="159.36127744511"/>
       <g id="Group_13" stroke="none" stroke-width="0.332" fill="#ff0400" stroke-miterlimit="159.36127744511">
        <path d="M 508.029,373.563 C 507.824,375.367 510.052,378.738 511.81,379.386 C 513.037,379.839 515.491,380.726 517.153,380.275 C 517.671,378.208 518.556,373.481 518.474,373.152 C 515.102,371.671 514.875,369.86 514.44,370.251 C 514.086,370.569 509.263,372.247 508.029,373.563 Z" marker-start="none" marker-end="none"/>
        <path d="M 511.165,357.709 C 508.921,358.177 505.833,362.432 505.76,364.304 C 505.709,365.611 505.623,368.219 506.567,369.66 C 508.692,369.514 513.734,368.848 514.021,368.669 C 513.667,364.779 516.385,362.843 515.879,362.551 C 515.466,362.313 512.392,358.71 511.165,357.709 Z" marker-start="none" marker-end="none"/>
        <path d="M 526.047,355.627 C 524.909,353.638 520.539,352.347 518.737,352.855 C 517.478,353.21 515.44,353.977 514.361,355.32 C 514.732,357.418 516.879,361.843 517.138,362.061 C 520.729,360.522 523.328,362.461 523.448,361.889 C 523.547,361.423 525.475,357.103 526.047,355.627 Z" marker-start="none" marker-end="none"/>
        <path d="M 532.504,369.718 C 534.537,367.83 534.238,363.011 533.198,361.454 C 532.471,360.366 531.581,359.336 529.97,358.726 C 528.089,359.727 524.544,362.222 524.417,362.535 C 526.564,365.651 525.967,368.185 526.209,368.733 C 526.621,368.946 530.923,369.63 532.504,369.718 Z" marker-start="none" marker-end="none"/>
        <path d="M 521.367,380.468 C 523.018,381.221 527.626,380.231 528.785,378.76 C 529.594,377.733 531.39,375.755 531.281,373.953 C 530.971,372.736 525.95,370.356 525.611,370.332 C 523.044,372.914 521.383,372.963 520.909,373.434 C 520.599,373.745 521.14,378.741 521.367,380.468 Z" marker-start="none" marker-end="none"/>
       </g>
      </g>
     </g>
    </g>
   </g>
  </g>
 </g>
</svg>
